<svg width="24" height="24" viewBox="0 0 24 24" fill="none" xmlns="http://www.w3.org/2000/svg">
<path d="M11.5 22.0001C9.96667 22.0001 8.66667 21.4668 7.6 20.4001C6.53333 19.3335 6 18.0335 6 16.5001V6.00012C6 4.90012 6.39167 3.95846 7.175 3.17512C7.95833 2.39179 8.9 2.00012 10 2.00012C11.1 2.00012 12.0417 2.39179 12.825 3.17512C13.6083 3.95846 14 4.90012 14 6.00012V15.5001C14 16.2001 13.7583 16.7918 13.275 17.2751C12.7917 17.7585 12.2 18.0001 11.5 18.0001C10.8 18.0001 10.2083 17.7585 9.725 17.2751C9.24167 16.7918 9 16.2001 9 15.5001V6.00012H10.5V15.5001C10.5 15.7835 10.5958 16.021 10.7875 16.2126C10.9792 16.4043 11.2167 16.5001 11.5 16.5001C11.7833 16.5001 12.0208 16.4043 12.2125 16.2126C12.4042 16.021 12.5 15.7835 12.5 15.5001V6.00012C12.5 5.30012 12.2583 4.70846 11.775 4.22512C11.2917 3.74179 10.7 3.50012 10 3.50012C9.3 3.50012 8.70833 3.74179 8.225 4.22512C7.74167 4.70846 7.5 5.30012 7.5 6.00012V16.5001C7.5 17.6001 7.89167 18.5418 8.675 19.3251C9.45833 20.1085 10.4 20.5001 11.5 20.5001C12.6 20.5001 13.5417 20.1085 14.325 19.3251C15.1083 18.5418 15.5 17.6001 15.5 16.5001V6.00012H17V16.5001C17 18.0335 16.4667 19.3335 15.4 20.4001C14.3333 21.4668 13.0333 22.0001 11.5 22.0001Z" fill="#49454F"/>
</svg>
