<svg width="24" height="24" viewBox="0 0 24 24" fill="none" xmlns="http://www.w3.org/2000/svg">
<path d="M12 20.0001C11.45 20.0001 10.9792 19.8043 10.5875 19.4126C10.1958 19.021 10 18.5501 10 18.0001C10 17.4501 10.1958 16.9793 10.5875 16.5876C10.9792 16.196 11.45 16.0001 12 16.0001C12.55 16.0001 13.0208 16.196 13.4125 16.5876C13.8042 16.9793 14 17.4501 14 18.0001C14 18.5501 13.8042 19.021 13.4125 19.4126C13.0208 19.8043 12.55 20.0001 12 20.0001ZM12 14.0001C11.45 14.0001 10.9792 13.8043 10.5875 13.4126C10.1958 13.021 10 12.5501 10 12.0001C10 11.4501 10.1958 10.9793 10.5875 10.5876C10.9792 10.196 11.45 10.0001 12 10.0001C12.55 10.0001 13.0208 10.196 13.4125 10.5876C13.8042 10.9793 14 11.4501 14 12.0001C14 12.5501 13.8042 13.021 13.4125 13.4126C13.0208 13.8043 12.55 14.0001 12 14.0001ZM12 8.00012C11.45 8.00012 10.9792 7.80429 10.5875 7.41262C10.1958 7.02096 10 6.55012 10 6.00012C10 5.45012 10.1958 4.97929 10.5875 4.58762C10.9792 4.19596 11.45 4.00012 12 4.00012C12.55 4.00012 13.0208 4.19596 13.4125 4.58762C13.8042 4.97929 14 5.45012 14 6.00012C14 6.55012 13.8042 7.02096 13.4125 7.41262C13.0208 7.80429 12.55 8.00012 12 8.00012Z" fill="#49454F"/>
</svg>
